<svg width="341" height="43" viewBox="0 0 341 43" fill="none" xmlns="http://www.w3.org/2000/svg">
<path d="M56.74 18.14C55.64 15.75 55.07 14.51 54.3 12.65C53.59 14.51 53.35 15.08 52.01 18.28L49.39 24.72H59.7L56.74 18.14ZM46.43 32.69L42.75 40.81H32L50.72 1.38H59.79L78.5 40.81H67.91L63.91 32.69H46.43ZM105.28 18.47C107.47 18.47 108.38 18.33 109.28 17.85C109.984 17.4438 110.57 16.8613 110.98 16.16C111.39 15.4586 111.611 14.6625 111.62 13.85C111.607 13.0383 111.385 12.2437 110.975 11.5431C110.565 10.8424 109.981 10.2592 109.28 9.85C108.42 9.37 107.51 9.27 105.28 9.27H92.15V18.39L105.28 18.47ZM92.15 40.81H82.27V1.38H108C112.58 1.38 115.06 1.96 117.4 3.38C118.886 4.32257 120.108 5.62746 120.951 7.17207C121.794 8.71668 122.231 10.4503 122.22 12.21C122.22 16.89 119.79 20.37 115.35 22.21C119.26 23.6 120.46 25.79 120.55 31.95C120.74 36.87 121.03 38.3 122.22 40.83H111.34C110.62 38.63 110.48 37.73 110.58 33.95C110.58 28.23 109 26.46 103.94 26.46H92.15V40.81ZM168.42 40.81V1.38H204.5V9.38H178.3V16.78H201.45V24.78H178.3V32.9H204.5V40.9L168.42 40.81ZM233.14 40.81H223.26V9.35H209.61V1.35H246.74V9.35H233.14V40.81ZM295.14 25.39C292.32 36.61 284.64 42.24 271.9 42.24C257.39 42.24 248.22 34.17 248.22 21.48C248.22 8.48 257.67 0 272.13 0C279.06 0 284.5 1.81 288.79 5.68C291.706 8.10641 293.738 11.4288 294.57 15.13H283.92C281.92 10.13 278.01 7.68 272.09 7.68C264.16 7.68 258.68 13.27 258.68 21.29C258.68 29.11 264.12 34.56 271.9 34.56C278.2 34.56 281.97 31.74 284.26 25.39H295.14ZM330.32 1.38V16.75H310V1.38H300.12V40.81H310V24.72H330.29V40.81H340.16V1.38H330.32ZM0 40.81V1.38H34.6V9.38H9.88V16.78H32.55V24.78H9.88V40.81H0ZM128.71 40.81V1.38H163.32V9.38H138.59V16.78H161.31V24.78H138.59V40.81H128.71Z" fill="black"/>
</svg>
